# xmcd
#
# Track frame offsets:
#	182
#	12602
#	23575
#	37035
#	50950
#	64910
#	79502
#	94090
#	109825
#	121240
#	134700
#	147312
#	158470
#	168910
#	181395
#	193125
#	208012
#	217945
#	231102
#	245362
#	261627
#	275677
#
# Disc length: 3856 seconds
#
# Revision: 0
# Processed by: cddbd v1.4PL0 Copyright (c) Steve Scherf et al.
# Submitted via: EasyCDDAExtractor 4.6.9.1
#
DISCID=490f0e16
DTITLE=Connie Francis - Among My Souvenirs (the best of) CD3
DYEAR=1900
DGENRE=
TTITLE0=Moon River
TTITLE1=Around The World
TTITLE2=Secret Love
TTITLE3=Days Of Wine and Roses
TTITLE4=Born Free
TTITLE5=True Love
TTITLE6=Tammy
TTITLE7=April Love
TTITLE8=All The Way
TTITLE9=The Shadow Of Your Smile
TTITLE10=Love Is A Many Splendoured Thing
TTITLE11=I'll Be With You In Apple Blossom Time
TTITLE12=Neverthless
TTITLE13=Fascination
TTITLE14=Everything I Have Is Yours
TTITLE15=Stardust
TTITLE16=La Vie En Rose
TTITLE17=My Foolish Heart
TTITLE18=Garden In The Rain
TTITLE19=You'll Never Know
TTITLE20=Am I Blue
TTITLE21=Anniversary Song
EXTD=
EXTT0=
EXTT1=
EXTT2=
EXTT3=
EXTT4=
EXTT5=
EXTT6=
EXTT7=
EXTT8=
EXTT9=
EXTT10=
EXTT11=
EXTT12=
EXTT13=
EXTT14=
EXTT15=
EXTT16=
EXTT17=
EXTT18=
EXTT19=
EXTT20=
EXTT21=
PLAYORDER=
